PathFileType	4	(X/Y/Z)	Patient4_TMGait_0pt5_01_right_19.trc.trc
DataRate	CameraRate	NumFrames	NumMarkers	Units	OrigDataRate	OrigDataStartFrame	OrigNumFrames
71.794871794872	71.794871794872	4	33	mm	71.794871794872	1	       141
Frame#	Time	L.ASIS			Sacral			L.Shoulder			Chest			R.Shoulder			Neck			R.ASIS			R.Thigh.Superior			R.Thigh.Lateral			R.Thigh.Inferior			R.Patella			L.Thigh.Superior			L.Thigh.Lateral			L.Thigh.Inferior			L.Patella			L.Shank.Superior			L.Shank.Lateral			L.Shank.Inferior			R.Shank.Superior			R.Shank.Lateral			R.Shank.Inferior			R.Heel			R.Midfoot.Superior			R.Midfoot.Lateral			R.Toe			L.Heel			L.Midfoot.Lateral			L.Midfoot.Superior			L.Toe			L.Elbow			L.Wrist			R.Elbow			R.Wrist			
		X1	Y1	Z1	X2	Y2	Z2	X3	Y3	Z3	X4	Y4	Z4	X5	Y5	Z5	X6	Y6	Z6	X7	Y7	Z7	X8	Y8	Z8	X9	Y9	Z9	X10	Y10	Z10	X11	Y11	Z11	X12	Y12	Z12	X13	Y13	Z13	X14	Y14	Z14	X15	Y15	Z15	X16	Y16	Z16	X17	Y17	Z17	X18	Y18	Z18	X19	Y19	Z19	X20	Y20	Z20	X21	Y21	Z21	X22	Y22	Z22	X23	Y23	Z23	X24	Y24	Z24	X25	Y25	Z25	X26	Y26	Z26	X27	Y27	Z27	X28	Y28	Z28	X29	Y29	Z29	X30	Y30	Z30	X31	Y31	Z31	X32	Y32	Z32	X33	Y33	Z33	

1	24.740000000000	854.724223093055	964.038091483494	281.226461463925	641.408806339389	1013.737942973874	437.962962660761	813.072738386835	1436.216012475969	243.724632898566	916.804736083518	1369.879738739893	406.045682278598	834.811004741011	1448.835242038798	578.771170776022	814.994608515445	1502.039469759314	392.293484957530	866.648622383890	949.343821926096	555.280772825415	941.468698303097	771.551858532417	534.462122650056	891.122137041817	653.590482909799	607.609687630599	981.500852719074	608.298941024949	532.575268571076	993.973487924431	495.630492052420	556.302003325985	895.784106919716	751.157152282584	310.086742660646	798.939402668825	639.140806050851	259.848603182136	880.814505788888	559.158345908749	321.857254172305	878.231049893917	490.866272274055	334.631253829790	854.130413426111	420.267997853826	329.521111551209	765.644222526482	302.481910444660	284.238475556729	820.895117674850	195.658104963081	360.492300144984	919.332159810606	421.785005854747	560.528446563192	798.346749273736	378.270490489105	618.447929010284	787.846823543305	269.304989045502	568.498624715742	587.992325207738	196.330214940707	535.897699221693	759.778566581466	152.378496170668	580.689790608850	650.090583615654	143.739258309166	612.205448509355	833.723139445561	47.861487095090	613.933935105320	695.247499013137	38.481996639761	409.756407955150	770.485601558382	34.932480637156	329.822058121500	853.622351556667	95.984410190173	355.550385135157	982.214542295283	43.860150536048	331.326204274749	839.944488579810	1085.689401122294	116.287800058568	1004.490339527224	882.002121633206	102.480010031590	829.145122290260	1100.221247688637	698.035425809522	983.488866269785	889.816976795823	672.644688676500	
2	24.753928571429	855.341042612576	964.533743812166	280.488985030338	640.104757150176	1013.974153006975	436.764338973016	813.732283817453	1436.125272866543	243.008961722750	916.191169849503	1369.732087715637	406.084836586127	833.079494096790	1448.613109403274	578.267561203217	814.667035257099	1502.043827398729	391.588102688505	864.976128345437	949.755210468730	555.113250019224	941.183834817528	773.724945989717	533.725789862478	893.054512321327	655.475966580819	607.467675210171	983.239027316535	611.187376527991	531.749956769710	998.376495934387	499.731275914524	555.768893132952	892.642718194487	750.148225798058	310.328982753993	794.689353453232	639.158707872675	259.433361379839	875.155356478767	558.366094138856	321.780750134235	871.721696308844	490.386975960377	334.577154316725	847.586507256789	420.069613053493	329.379824401813	758.929403130882	302.435629908988	284.011507617860	813.806647483738	195.579068045982	360.464784679293	926.506999830745	423.955482484684	560.580219619246	808.208721354810	375.509552491192	619.286445061433	802.127164871375	266.302872543711	569.528669322337	605.918718459328	184.970454391078	538.317237548681	779.197333930192	148.510691478873	581.962954391695	670.543225067405	135.350406547003	614.355545060520	857.591209156052	47.449706478357	614.840213199199	687.808499725672	38.449623651480	409.740597232654	763.075944746122	34.918594719860	329.782434453328	846.210904371153	95.970206411295	355.521686536970	974.804070400242	43.835181928363	331.320803734276	844.828175070310	1087.013336521251	113.885800809113	1017.703917554121	891.252289040525	99.518110676428	816.915969335627	1101.290315983731	698.546485338883	952.999363013279	880.954872696582	679.168896297606	
3	24.767857142857	855.866705044933	964.950160501807	279.824625039633	638.812350071150	1014.183090202356	435.601275130385	814.383448773687	1436.005614375914	242.332870587067	915.589670852927	1369.557373368193	406.151763725503	831.377037710124	1448.370566622628	577.798873931571	814.358726391073	1502.018660212392	390.922845632731	863.288019092283	950.126549491560	554.971472360266	940.829328529555	775.814131673716	533.007668321664	894.867224429503	657.283700599863	607.325716376886	984.828275140085	613.970125095788	530.924537869204	1002.591775673011	503.769710064025	555.218147776905	889.537468608392	749.128020634143	310.596989135489	790.466723939851	639.165516261645	259.039646608419	869.518814845358	557.569074278638	321.734529690553	865.230779455537	489.901002161850	334.557998099700	841.059620011044	419.862257282220	329.268080433101	752.246984823795	302.383121118493	283.791069386478	806.738994213187	195.493547303230	360.453604551983	933.581012430367	426.069248495351	560.606797292692	818.085946514146	372.652402513106	620.153930095282	816.469865723663	263.250639418494	570.553785243504	624.048689185607	173.473519476919	540.803212238721	798.758038667960	144.642174786295	583.195155899833	691.236488860291	126.906854007024	616.532743302575	881.643366486528	47.156928984945	615.647391098929	680.394925057992	38.411751908599	409.725242228103	755.686891687831	34.902326874176	329.746697663996	838.818378622772	95.956079355431	355.499971654933	967.415492317998	43.813441979065	331.316614429154	849.604641195814	1088.300828593641	111.543112339697	1030.705840451629	900.528266109393	96.672672930434	804.718220144516	1102.402000355546	699.028993881824	922.638754038300	872.591300333068	685.586468178794	
4	24.781785714286	856.224112658570	965.220341477989	279.302982095940	637.557238633186	1014.339005179847	434.517403787155	815.025793260600	1435.833981071775	241.743992279821	915.019806106802	1369.332071875149	406.279856952227	829.745925849148	1448.094088022040	577.405813409149	814.093312980917	1501.939426779135	390.344967138235	861.589340275722	950.418200028694	554.887019004923	940.337369985925	777.714983633340	532.346895177264	896.413712261493	658.919031771280	607.200284476710	986.113150232950	616.516792916258	530.130054954705	1006.397600981278	507.648835547510	554.653387298856	886.516602256222	748.095760040234	310.913570746536	786.325367641531	639.152615090204	258.688480474317	863.966091454596	556.769972438994	321.742874733953	858.825724880634	489.403970762113	334.597210672413	834.613021116015	419.639764093468	329.206024645335	745.663552273324	302.321867863345	283.584927802493	799.748932925801	195.396202953483	360.469184886745	940.393604722222	428.069684560777	560.601314528224	827.910047040568	369.653408380282	621.053209278425	830.833668773323	260.171054561550	571.553739541945	642.485158173928	161.872843607750	543.336517904907	818.465396630578	140.857533744406	584.342211873128	712.251475683551	118.482849333728	618.703185963053	905.859366794183	47.146777081790	616.287193242167	673.064883264817	38.366809195071	409.710529286400	748.372322207853	34.882741755670	329.717287705031	831.498681303952	95.941066936465	355.490421746794	960.103891559373	43.796657879664	331.314892444294	854.139263709206	1089.504671195323	109.340606541302	1043.197432767968	909.772817578089	94.073102103571	792.666789676729	1103.607631905280	699.463151722444	892.784827161949	865.213561576136	691.738795289031	
